<?xml version="1.0" encoding="UTF-8"?>
<svg id="Layer_2" data-name="Layer 2" xmlns="http://www.w3.org/2000/svg" viewBox="0 0 340.58 48.76">
  <defs>
    <style>
      .cls-1 {
        fill: #12335a;
      }

      .cls-1, .cls-2, .cls-3 {
        stroke-width: 0px;
      }

      .cls-2 {
        fill: #000;
      }

      .cls-3 {
        fill: #fff;
      }
    </style>
  </defs>
  <g id="Calque_1" data-name="Calque 1">
    <rect class="cls-3" width="340.58" height="48.76"/>
    <rect class="cls-1" width="48.38" height="48.76"/>
    <rect class="cls-2" x="95.93" width="244.65" height="48.76"/>
    <path class="cls-2" d="M92.15,24.46c0,1.06-.08,2.11-.23,3.14-1.4,9.52-9.05,16.99-18.6,18.15h-.1s-19.91.01-19.91.01v-27.33h9.08v18.25h10.22c5.06-.78,9.15-4.66,10.2-9.67.17-.84.26-1.69.26-2.55s-.08-1.65-.24-2.45c-.59-2.95-2.25-5.58-4.67-7.42-1.48-1.13-3.18-1.89-4.99-2.26-.62-.12-1.25-.2-1.89-.23h-17.97V3l19.03.07c4.65.35,9.07,2.22,12.58,5.32,3.82,3.38,6.32,8.02,7.02,13.04.14.99.21,2.01.21,3.02Z"/>
    <path class="cls-2" d="M95.93,48.76h-47.55V0h47.55v48.76ZM49.13,48h46.05V.75h-46.05v47.25Z"/>
    <g>
      <path class="cls-3" d="M140.74,8.14v32.84h-4.75v-21.37l-6.46,6.47-1.55,1.55-1.81,1.81-10.05-10.05h0s-4.75-4.75-4.75-4.75v-6.72l14.8,14.8,14.57-14.57ZM111.36,17.99l4.75,4.75v18.24h-4.75v-22.99Z"/>
      <path class="cls-3" d="M160.33,8.01c9.1,0,16.48,7.38,16.48,16.48s-7.38,16.48-16.48,16.48-16.48-7.38-16.48-16.48,7.38-16.48,16.48-16.48ZM148.59,24.49c0,6.47,5.26,11.73,11.73,11.73s11.73-5.26,11.73-11.73-5.26-11.73-11.73-11.73-11.73,5.26-11.73,11.73Z"/>
      <path class="cls-3" d="M210.91,31.52c0,1.66-.43,3.23-1.19,4.59-1.61,2.9-4.71,4.86-8.26,4.86-.42,0-.83-.03-1.23-.08-.4.05-.81.08-1.23.08h-17.47V15.23h4.75v6.77h13.49c2.22-.37,3.91-2.3,3.91-4.63s-1.57-4.11-3.67-4.58h-18.49v-4.87h17.47c3.51,0,6.57,1.91,8.2,4.75.02.04.05.08.07.12.75,1.36,1.18,2.92,1.18,4.58s-.44,3.26-1.21,4.63c-.01.03-.03.05-.04.08-.27.47-.58.91-.92,1.32.52.31,1,.66,1.45,1.05.79.7,1.47,1.54,1.99,2.47.76,1.36,1.2,2.93,1.2,4.61ZM206.15,31.52c0-2.29-1.64-4.19-3.81-4.61h-16.06v9.19h16.16c2.12-.45,3.71-2.34,3.71-4.59Z"/>
      <path class="cls-3" d="M215.7,40.97V7.97h4.75v33h-4.75ZM215.7,7.97v33h4.75V7.97h-4.75ZM220.29,8.13h-4.43v32.69h4.43V8.13Z"/>
      <path class="cls-3" d="M250.8,36.22v4.75h-25.63V7.78h4.75v28.44h20.88Z"/>
      <path class="cls-3" d="M255.52,40.97V7.97h4.75v33h-4.75ZM255.52,7.97v33h4.75V7.97h-4.75ZM260.11,8.13h-4.43v32.69h4.43V8.13Z"/>
      <path class="cls-3" d="M294.67,8.04v4.75h-29.13v-4.75h29.13ZM270.29,36.22h24.38v4.75h-29.13V15.17h4.75v5.77h21.18v4.75h-21.18v10.54Z"/>
      <path class="cls-3" d="M330.1,40.97h-5.56l-9.49-15.57-.26-.43s-.04,0-.06.02c-.09.02-.17.05-.26.07-.03,0-.05.02-.08.02-.12.03-.25.06-.37.09-.28.06-.56.12-.85.17-.08.01-.16.03-.25.04-.04,0-.09.01-.13.02-.11.02-.21.03-.32.05-.05,0-.09.01-.14.02-.11.01-.23.03-.34.04-.14.02-.27.03-.41.04h-.01c-.13,0-.26.02-.38.02-.02,0-.05,0-.07,0-.09,0-.18,0-.28,0-.06,0-.12,0-.18,0-.11,0-.23,0-.34,0h-6.12v15.38h-4.75V7.94h27.32c.03.39.04.77.04,1.17,0,1.23-.14,2.43-.39,3.59-.7,3.15-2.3,5.96-4.51,8.15-.21.2-.42.4-.63.59-.07.06-.15.13-.22.19,0,0-.02.02-.03.02-.09.08-.19.16-.29.24-.07.06-.14.11-.21.17-.05.04-.1.08-.15.12-.18.14-.37.28-.55.41-.09.06-.18.12-.27.19,0,0,0,0-.02,0-.08.06-.17.11-.25.17-.01,0-.03.02-.04.03-.03.02-.06.04-.09.06l.57.94,10.37,17.01ZM318.57,17.46c1.36-1.34,2.36-2.97,2.94-4.77h-17.3v8.15h6.12c1.63,0,3.21-.33,4.66-.96,1.32-.57,2.53-1.39,3.58-2.42Z"/>
    </g>
    <path class="cls-3" d="M45.16,45.76h-12.85l-.5-.5-14.46-14.46-4.07,4.07v10.89H4.2v-14.63l14.62-14.62h0s13.5-13.51,13.5-13.51h12.85l-2.91,2.91-18.47,18.47,18.48,18.47,2.91,2.91ZM13.28,13.09l-9.08,9.08V3h9.08v10.09Z"/>
  </g>
</svg>