<?xml version="1.0" encoding="UTF-8"?>
<svg id="Layer_2" data-name="Layer 2"
  xmlns="http://www.w3.org/2000/svg" width="157.76" height="113.72" viewBox="0 0 157.76 113.72">
  <defs>
    <style>
      .cls-1 {
        fill: #fff;
        stroke-width: 0px;
      }
    </style>
  </defs>
  <g id="Calque_1" data-name="Calque 1">
    <g>
      <g>
        <path class="cls-1" d="M21.19,90.04v23.68h-3.43v-15.41l-4.66,4.66-1.12,1.12-1.31,1.3-7.25-7.25h0s-3.43-3.43-3.43-3.43v-4.85l10.68,10.68,10.51-10.51ZM0,97.14l3.43,3.43v13.15H0v-16.58Z"/>
        <path class="cls-1" d="M35.32,89.94c6.57,0,11.89,5.32,11.89,11.89s-5.32,11.89-11.89,11.89-11.89-5.32-11.89-11.89,5.32-11.89,11.89-11.89ZM26.85,101.83c0,4.67,3.8,8.46,8.46,8.46s8.46-3.8,8.46-8.46-3.8-8.46-8.46-8.46-8.46,3.8-8.46,8.46Z"/>
        <path class="cls-1" d="M71.8,106.9c0,1.2-.31,2.33-.86,3.31-1.16,2.09-3.4,3.51-5.96,3.51-.3,0-.6-.02-.89-.06-.29.04-.59.06-.89.06h-12.6v-18.57h3.43v4.88h9.73c1.6-.27,2.82-1.66,2.82-3.34s-1.13-2.97-2.65-3.3h-13.33v-3.51h12.6c2.53,0,4.74,1.38,5.92,3.43.02.03.03.06.05.09.54.98.85,2.1.85,3.3s-.32,2.35-.87,3.34c-.01.02-.02.04-.03.05-.19.34-.42.65-.66.95.37.22.72.47,1.04.76.57.51,1.06,1.11,1.43,1.78.55.98.86,2.12.86,3.32ZM68.37,106.9c0-1.65-1.18-3.02-2.75-3.32h-11.59v6.63h11.65c1.53-.33,2.68-1.69,2.68-3.31Z"/>
        <path class="cls-1" d="M75.25,113.72v-23.8h3.43v23.8h-3.43ZM75.25,89.92v23.8h3.43v-23.8h-3.43ZM78.56,90.03h-3.2v23.58h3.2v-23.58Z"/>
        <path class="cls-1" d="M100.57,110.3v3.43h-18.48v-23.94h3.43v20.51h15.06Z"/>
        <path class="cls-1" d="M103.97,113.72v-23.8h3.43v23.8h-3.43ZM103.97,89.92v23.8h3.43v-23.8h-3.43ZM107.28,90.03h-3.2v23.58h3.2v-23.58Z"/>
        <path class="cls-1" d="M132.21,89.97v3.43h-21.01v-3.43h21.01ZM114.62,110.3h17.58v3.43h-21.01v-18.61h3.43v4.16h15.28v3.43h-15.28v7.6Z"/>
        <path class="cls-1" d="M157.76,113.72h-4.01l-6.85-11.23-.19-.31s-.03,0-.04.01c-.06.02-.12.03-.18.05-.02,0-.04.01-.06.02-.09.02-.18.04-.27.06-.2.05-.41.09-.61.12-.06.01-.12.02-.18.03-.03,0-.06.01-.09.01-.08.01-.15.02-.23.03-.03,0-.07,0-.1.01-.08.01-.16.02-.24.03-.1.01-.2.02-.3.03h0c-.09,0-.18.01-.28.02-.02,0-.03,0-.05,0-.07,0-.13,0-.2,0-.04,0-.08,0-.13,0-.08,0-.16,0-.24,0h-4.42v11.09h-3.43v-23.82h19.7c.02.28.03.56.03.84,0,.89-.1,1.75-.28,2.59-.5,2.27-1.66,4.3-3.26,5.88-.15.15-.3.29-.46.43-.05.05-.11.09-.16.14,0,0-.01.01-.02.02-.07.06-.14.12-.21.17-.05.04-.1.08-.15.12-.04.03-.07.06-.11.08-.13.1-.26.2-.4.3-.06.05-.13.09-.19.13,0,0,0,0-.01,0-.06.04-.12.08-.18.12-.01,0-.02.01-.03.02-.02.02-.04.03-.07.04l.41.68,7.48,12.27ZM149.44,96.76c.98-.97,1.7-2.14,2.12-3.44h-12.48v5.88h4.42c1.17,0,2.31-.24,3.36-.69.95-.41,1.83-1,2.58-1.75Z"/>
      </g>
      <g>
        <path class="cls-1" d="M150.9,39.86c0,1.72-.13,3.44-.37,5.12-2.28,15.53-14.75,27.69-30.33,29.58l-.17.02h-32.45V30.04h14.8v29.74h16.65c8.24-1.27,14.91-7.59,16.63-15.77.28-1.36.43-2.76.43-4.15s-.13-2.69-.39-3.99c-.97-4.81-3.67-9.1-7.62-12.09-2.42-1.84-5.19-3.08-8.13-3.68-1.01-.2-2.04-.33-3.08-.38h-29.3V4.89l31.02.11c7.58.58,14.79,3.61,20.5,8.68,6.23,5.51,10.29,13.07,11.45,21.26.23,1.61.35,3.27.35,4.93Z"/>
        <path class="cls-1" d="M157.07,79.47h-77.51V0h77.51v79.47ZM80.78,78.24h75.06V1.23h-75.06v77.02Z"/>
        <path class="cls-1" d="M74.31,74.59h-20.94l-.81-.81-23.57-23.57-6.63,6.63v17.75H7.54v-23.85l23.83-23.83-.02-.02L53.36,4.89h20.94l-4.74,4.74-30.11,30.11,30.12,30.11,4.74,4.74ZM22.35,21.33l-14.81,14.8V4.89h14.81v16.45Z"/>
      </g>
    </g>
  </g>
</svg>