<?xml version="1.0" encoding="UTF-8"?>
<svg id="Layer_2" data-name="Layer 2" xmlns="http://www.w3.org/2000/svg" viewBox="0 0 603.76 190.17">
  <defs>
    <style>
      .cls-1 {
        font-family: Quicksand-Bold, Quicksand;
        font-size: 79.07px;
        font-variation-settings: 'wght' 700;
        font-weight: 700;
        letter-spacing: .06em;
      }

      .cls-1, .cls-2 {
        fill: #fff;
      }

      .cls-3 {
        fill: #12335a;
      }

      .cls-3, .cls-4, .cls-2 {
        stroke-width: 0px;
      }

      .cls-4 {
        fill: #000;
      }
    </style>
  </defs>
  <g id="Calque_1" data-name="Calque 1">
    <g>
      <g>
        <rect class="cls-4" x="97.76" y="37.41" width="505.99" height="115.34"/>
        <g>
          <ellipse class="cls-2" cx="93.8" cy="95.09" rx="93.8" ry="95.09"/>
          <g>
            <rect class="cls-3" x="18.7" y="54.81" width="78.86" height="80.56"/>
            <path class="cls-4" d="M168.91,95.21c0,1.74-.13,3.49-.37,5.19-2.28,15.74-14.75,28.07-30.33,29.98l-.17.02h-32.45v-45.15h14.8v30.15h16.65c8.24-1.29,14.91-7.69,16.63-15.99.28-1.38.43-2.8.43-4.21s-.13-2.72-.39-4.04c-.97-4.87-3.67-9.23-7.62-12.25-2.42-1.86-5.19-3.13-8.13-3.73-1.01-.21-2.04-.33-3.08-.38h-29.3v-15.04l31.02.12c7.58.58,14.79,3.66,20.5,8.79,6.23,5.59,10.29,13.25,11.45,21.55.23,1.63.35,3.31.35,5Z"/>
            <path class="cls-2" d="M92.31,130.41h-20.94l-.81-.83-23.57-23.89-6.63,6.73v17.99h-14.81v-24.18l23.83-24.16-.02-.02,22-22.3h20.94l-4.74,4.8-30.11,30.52,30.12,30.52,4.74,4.81ZM40.35,76.43l-14.81,15v-31.68h14.81v16.67Z"/>
          </g>
        </g>
      </g>
      <text class="cls-1" transform="translate(194.93 123.28) scale(.99 1)"><tspan x="0" y="0">MOBILIER</tspan></text>
    </g>
  </g>
</svg>