<?xml version="1.0" encoding="utf-8"?>
<!-- Generator: Adobe Illustrator 23.0.2, SVG Export Plug-In . SVG Version: 6.00 Build 0)  -->
<svg version="1.1" id="Ebene_1" xmlns="http://www.w3.org/2000/svg" xmlns:xlink="http://www.w3.org/1999/xlink" x="0px" y="0px"
	 viewBox="0 0 44 38" style="enable-background:new 0 0 44 38;" xml:space="preserve">
<style type="text/css">
	.st0{fill:#353430;}
</style>
<g>
	<path class="st0" d="M40.4,7.5c0.7,1.1,1.3,2.5,1.8,4.1c0.4,1.6,0.6,3.3,0.6,5.1c0,3.8-1,7.3-2.9,10.3s-4.8,5.5-8.7,7.3l-1-2
		c2.1-0.9,4-2.2,5.6-4.1c1.6-1.8,2.5-3.7,2.8-5.6c0.2-0.9,0.3-1.7,0.3-2.5c0-0.7-0.1-1.4-0.3-2.1c-1.6,1.8-3.7,2.6-6.4,2.6
		c-2.6,0-4.7-0.8-6.3-2.3c-1.6-1.5-2.4-3.6-2.4-6.2c0-2.5,0.8-4.5,2.5-6.1s3.9-2.4,6.5-2.4C36.2,3.7,38.8,5,40.4,7.5z M17.7,7.5
		c0.7,1.1,1.3,2.5,1.8,4.1s0.7,3.3,0.7,5.1c0,3.8-1,7.3-2.9,10.4s-4.8,5.5-8.6,7.3l-1-2c2.1-0.9,4-2.2,5.6-4.1
		c1.6-1.8,2.5-3.7,2.8-5.6c0.2-0.9,0.3-1.7,0.3-2.5c0-0.7-0.1-1.4-0.3-2.1c-1.6,1.8-3.8,2.6-6.4,2.6S5,19.9,3.4,18.4S1,14.8,1,12.2
		c0-2.5,0.8-4.5,2.5-6.1S7.4,3.7,10,3.7C13.4,3.7,16.1,5,17.7,7.5z"/>
</g>
</svg>
