<?xml version="1.0" encoding="utf-8"?>
<!-- Generator: Adobe Illustrator 23.1.1, SVG Export Plug-In . SVG Version: 6.00 Build 0)  -->
<svg version="1.1"
	 id="svg5512" inkscape:version="0.92.0 r15299" sodipodi:docname="stripe.svg" xmlns:cc="http://creativecommons.org/ns#" xmlns:dc="http://purl.org/dc/elements/1.1/" xmlns:inkscape="http://www.inkscape.org/namespaces/inkscape" xmlns:rdf="http://www.w3.org/1999/02/22-rdf-syntax-ns#" xmlns:sodipodi="http://sodipodi.sourceforge.net/DTD/sodipodi-0.dtd" xmlns:svg="../../external452e.html?link=http://www.w3.org/2000/svg"
	 xmlns="http://www.w3.org/2000/svg" xmlns:xlink="http://www.w3.org/1999/xlink" x="0px" y="0px" viewBox="0 0 927.2 151.8"
	 style="enable-background:new 0 0 927.2 151.8;" xml:space="preserve">
<style type="text/css">
	.st0{fill-rule:evenodd;clip-rule:evenodd;fill:#FFFFFF;}
	.st1{fill:#FFFFFF;}
	.st2{opacity:0.7;fill:#FFFFFF;}
	.st3{opacity:0.8;fill:#FFFFFF;}
</style>
<sodipodi:namedview  bordercolor="#666666" borderopacity="1.0" fit-margin-bottom="0" fit-margin-left="0" fit-margin-right="0" fit-margin-top="0" id="base" inkscape:current-layer="layer1" inkscape:cx="180" inkscape:cy="74.899999" inkscape:document-units="mm" inkscape:pageopacity="0.0" inkscape:pageshadow="2" inkscape:window-height="744" inkscape:window-maximized="1" inkscape:window-width="1280" inkscape:window-x="-4" inkscape:window-y="-4" inkscape:zoom="2.2277778" pagecolor="#ffffff" showgrid="false" units="px">
	</sodipodi:namedview>
<g id="layer1" transform="translate(24.946428,-325.0345)" inkscape:groupmode="layer" inkscape:label="Layer 1">
	<g id="Stripe" transform="matrix(0.26458333,0,0,0.26458333,-38.969344,315.77409)">
		<path id="path5516" inkscape:connector-curvature="0" class="st0" d="M1417.4,331.3c0-96.8-46.9-173.1-136.4-173.1
			c-90,0-144.4,76.3-144.4,172.3c0,113.8,64.3,171.2,156.5,171.2c45,0,79-10.2,104.7-24.6v-75.6c-25.7,12.9-55.2,20.8-92.6,20.8
			c-36.7,0-69.2-12.9-73.3-57.4h184.8C1416.7,360,1417.4,340.4,1417.4,331.3z M1230.7,295.4c0-42.7,26.1-60.5,49.9-60.5
			c23.1,0,47.6,17.8,47.6,60.5H1230.7z"/>
		<path id="path5518" inkscape:connector-curvature="0" class="st0" d="M990.7,158.2c-37,0-60.9,17.4-74.1,29.5l-4.9-23.4h-83.1V605
			l94.5-20l0.4-107c13.6,9.8,33.6,23.8,66.9,23.8c67.7,0,129.3-54.4,129.3-174.2C1119.2,217.9,1056.8,158.2,990.7,158.2L990.7,158.2
			z M968,418.6c-22.3,0-35.5-7.9-44.6-17.8L923,260.6c9.8-11,23.4-18.5,45-18.5c34.4,0,58.2,38.6,58.2,88.1
			C1026.2,380.8,1002.8,418.6,968,418.6z"/>
		<polygon id="polygon5520" class="st0" points="793.4,115.5 793.4,38.8 698.5,58.8 698.5,135.9 		"/>
		<rect id="rect5522" x="698.5" y="164.6" class="st0" width="94.9" height="330.7"/>
		<path id="path5524" inkscape:connector-curvature="0" class="st0" d="M596.9,192.6l-6-28h-81.6v330.7h94.5V271.2
			c22.3-29.1,60.1-23.8,71.8-19.7v-86.9C663.4,160.1,619.2,151.8,596.9,192.6L596.9,192.6z"/>
		<path id="path5526" inkscape:connector-curvature="0" class="st0" d="M407.9,82.6l-92.2,19.7L315.3,405c0,55.9,42,97.1,97.9,97.1
			c31,0,53.7-5.7,66.1-12.5V413c-12.1,4.9-71.8,22.3-71.8-33.6V245.1h71.8v-80.5h-71.8L407.9,82.6z"/>
		<path id="path5528" inkscape:connector-curvature="0" class="st0" d="M152.4,260.6c0-14.7,12.1-20.4,32.1-20.4
			c28.7,0,65,8.7,93.7,24.2v-88.8c-31.4-12.5-62.4-17.4-93.7-17.4c-76.7,0-127.7,40.1-127.7,107c0,104.3,143.6,87.7,143.6,132.7
			c0,17.4-15.1,23.1-36.3,23.1c-31.4,0-71.4-12.9-103.2-30.2v90c35.1,15.1,70.7,21.5,103.2,21.5c78.6,0,132.7-38.9,132.7-106.6
			C296.4,282.9,152.4,303,152.4,260.6L152.4,260.6z"/>
	</g>
</g>
<g>
	<path class="st1" d="M631.1,44h-26.2c-1.8,0-3.3,1.3-3.6,3.1l-10.6,67.1c-0.2,1.2,0.6,2.3,1.8,2.5c0.1,0,0.2,0,0.3,0h12.5
		c1.8,0,3.3-1.3,3.6-3.1l2.9-18.1c0.3-1.8,1.8-3.1,3.6-3.1h8.3c17.2,0,27.2-8.3,29.8-24.9c1.2-7.2,0-12.9-3.3-16.9
		C646.4,46.3,639.8,44,631.1,44z M634.1,68.5c-1.4,9.4-8.6,9.4-15.5,9.4h-3.9l2.8-17.5c0.2-1.1,1.1-1.8,2.2-1.8h1.8
		c4.7,0,9.2,0,11.5,2.7C634.2,62.8,634.6,65.2,634.1,68.5z M709.3,68.2h-12.5c-1.1,0-2,0.8-2.2,1.8l-0.6,3.5l-0.9-1.3
		c-2.7-3.9-8.8-5.3-14.8-5.3c-13.9,0-25.7,10.5-28,25.2c-1.2,7.3,0.5,14.4,4.7,19.3c3.8,4.5,9.3,6.4,15.8,6.4
		c11.2,0,17.3-7.2,17.3-7.2l-0.6,3.5c-0.2,1.2,0.6,2.3,1.8,2.5c0.1,0,0.2,0,0.3,0h11.3c1.8,0,3.3-1.3,3.6-3.1l6.8-42.9
		c0.2-1.2-0.6-2.3-1.8-2.5C709.5,68.2,709.4,68.2,709.3,68.2z M691.8,92.6c-1.2,7.2-6.9,12-14.1,12c-3.6,0-6.5-1.2-8.4-3.4
		c-1.9-2.2-2.6-5.3-2-8.8c1.1-7.1,6.9-12.1,14-12.1c3.6,0,6.5,1.2,8.4,3.4C691.6,86,692.4,89.1,691.8,92.6z M776,68.2h-12.6
		c-1.2,0-2.3,0.6-3,1.6l-17.4,25.6l-7.4-24.6c-0.5-1.5-1.9-2.6-3.5-2.6h-12.4c-1.2,0-2.2,1-2.2,2.2c0,0.2,0,0.5,0.1,0.7l13.9,40.7
		l-13,18.4c-0.7,1-0.5,2.3,0.5,3c0.4,0.3,0.8,0.4,1.3,0.4H733c1.2,0,2.3-0.6,3-1.6l41.9-60.5c0.7-1,0.4-2.3-0.5-3
		C776.9,68.3,776.5,68.2,776,68.2L776,68.2z"/>
	<path class="st1" d="M817.7,44h-26.2c-1.8,0-3.3,1.3-3.6,3.1l-10.6,67.1c-0.2,1.2,0.6,2.3,1.8,2.5c0.1,0,0.2,0,0.3,0H793
		c1.3,0,2.3-0.9,2.5-2.2l3-19c0.3-1.8,1.8-3.1,3.6-3.1h8.3c17.2,0,27.2-8.3,29.8-24.9c1.2-7.2,0-12.9-3.3-16.9
		C833.1,46.3,826.5,44,817.7,44z M820.8,68.5c-1.4,9.4-8.6,9.4-15.5,9.4h-3.9l2.8-17.5c0.2-1.1,1.1-1.8,2.2-1.8h1.8
		c4.7,0,9.2,0,11.5,2.7C820.9,62.8,821.3,65.2,820.8,68.5z M896,68.2h-12.5c-1.1,0-2,0.8-2.2,1.8l-0.6,3.5l-0.9-1.3
		c-2.7-3.9-8.8-5.3-14.8-5.3c-13.9,0-25.7,10.5-28,25.2c-1.2,7.3,0.5,14.4,4.7,19.3c3.8,4.5,9.3,6.4,15.8,6.4
		c11.2,0,17.3-7.2,17.3-7.2l-0.6,3.5c-0.2,1.2,0.6,2.3,1.8,2.5c0.1,0,0.2,0,0.3,0h11.3c1.8,0,3.3-1.3,3.6-3.1l6.8-42.9
		c0.2-1.2-0.6-2.3-1.8-2.5C896.2,68.2,896.1,68.2,896,68.2z M878.5,92.6c-1.2,7.2-6.9,12-14.1,12c-3.6,0-6.5-1.2-8.4-3.4
		c-1.9-2.2-2.5-5.3-2-8.8c1.1-7.1,6.9-12.1,14-12.1c3.6,0,6.5,1.2,8.4,3.4C878.3,86,879.1,89.1,878.5,92.6z M910.8,45.8L900,114.2
		c-0.2,1.2,0.6,2.3,1.8,2.5c0.1,0,0.2,0,0.3,0H913c1.8,0,3.3-1.3,3.6-3.1l10.6-67.1c0.2-1.2-0.6-2.3-1.8-2.5c-0.1,0-0.2,0-0.3,0
		h-12.1C911.8,44,910.9,44.8,910.8,45.8z"/>
	<path class="st1" d="M542.4,47.5c-0.1,0.7-0.2,1.4-0.4,2.1c-4.7,24.3-20.9,32.7-41.6,32.7h-10.5c-2.5,0-4.7,1.8-5.1,4.3l-5.4,34.2
		l-1.5,9.7c-0.2,1.5,0.8,2.8,2.2,3.1c0.1,0,0.3,0,0.4,0h18.7c2.2,0,4.1-1.6,4.4-3.8l0.2-0.9l3.5-22.3l0.2-1.2
		c0.3-2.2,2.2-3.8,4.4-3.8h2.8c18.1,0,32.3-7.3,36.4-28.6c1.7-8.9,0.8-16.3-3.7-21.5C546.1,49.8,544.3,48.5,542.4,47.5z"/>
	<path class="st2" d="M537.5,45.5c-1.5-0.4-3-0.8-4.6-1c-3.1-0.5-6.2-0.7-9.3-0.7h-28.1c-2.2,0-4.1,1.6-4.4,3.8l-6,37.9l-0.2,1.1
		c0.4-2.5,2.5-4.3,5.1-4.3h10.5c20.7,0,36.9-8.4,41.6-32.7c0.1-0.7,0.3-1.4,0.4-2.1c-1.2-0.7-2.6-1.2-3.9-1.6
		C538.2,45.7,537.8,45.6,537.5,45.5z"/>
	<path class="st3" d="M491,47.6c0.3-2.2,2.2-3.8,4.4-3.8h28.1c3.3,0,6.4,0.2,9.3,0.7c1.9,0.3,3.8,0.8,5.7,1.4c1.4,0.5,2.7,1,3.9,1.6
		c1.4-9,0-15.1-4.9-20.6c-5.4-6.1-15-8.7-27.4-8.7h-35.9c-2.5,0-4.7,1.8-5.1,4.3l-15,94.8c-0.3,1.7,0.9,3.3,2.6,3.5
		c0.2,0,0.3,0,0.5,0h22.2l5.6-35.3C485,85.5,491,47.6,491,47.6z"/>
</g>
</svg>
